G04*
G04 #@! TF.GenerationSoftware,Altium Limited,Altium Designer,24.9.1 (31)*
G04*
G04 Layer_Color=65535*
%FSLAX44Y44*%
%MOMM*%
G71*
G04*
G04 #@! TF.SameCoordinates,4F6A3D44-4BAA-4EB1-AB99-C70FB7F5AA8B*
G04*
G04*
G04 #@! TF.FilePolarity,Positive*
G04*
G01*
G75*
%ADD10C,0.2500*%
%ADD11C,0.2000*%
%ADD12C,0.1500*%
%ADD13C,0.2540*%
D10*
X77505Y224151D02*
G03*
X77505Y224151I-1250J0D01*
G01*
X174479D02*
G03*
X174479Y224151I-1250J0D01*
G01*
X327456Y224536D02*
G03*
X327456Y224536I-1250J0D01*
G01*
X424283Y193916D02*
G03*
X424283Y193916I-1250J0D01*
G01*
D11*
X449957Y272997D02*
G03*
X449957Y272997I-1000J0D01*
G01*
X51207Y272498D02*
G03*
X51207Y272498I-1000J0D01*
G01*
X100810Y237289D02*
X113534D01*
X100810Y223789D02*
X113534D01*
X180173Y159635D02*
Y172360D01*
X166673Y159635D02*
Y172360D01*
X136245Y237210D02*
X148970D01*
X136245Y223710D02*
X148970D01*
X68392Y200427D02*
Y217151D01*
X84117Y200427D02*
Y217151D01*
X100489Y194403D02*
X115250D01*
X100489Y179545D02*
X115250D01*
X134727Y194403D02*
X149488D01*
X134727Y179545D02*
X149488D01*
X68798Y246086D02*
Y257086D01*
X83711Y246033D02*
Y257033D01*
X165772Y246124D02*
Y257124D01*
X180686Y246071D02*
Y257071D01*
X83038Y159726D02*
Y172451D01*
X69538Y159726D02*
Y172451D01*
X181091Y200427D02*
Y217151D01*
X165366Y200427D02*
Y217151D01*
X304331Y215834D02*
Y228559D01*
X290832Y215834D02*
Y228559D01*
X207559Y213438D02*
Y226162D01*
X194059Y213438D02*
Y226162D01*
X290125Y246087D02*
Y257087D01*
X305038Y246033D02*
Y257033D01*
X224852Y248064D02*
X239613D01*
X224852Y233206D02*
X239613D01*
X334069Y200811D02*
Y217536D01*
X318344Y200811D02*
Y217536D01*
X332959Y160150D02*
Y172875D01*
X319459Y160150D02*
Y172875D01*
X318675Y246439D02*
Y257439D01*
X333588Y246386D02*
Y257386D01*
X368225Y279530D02*
X380950D01*
X368225Y266030D02*
X380950D01*
X350692Y237308D02*
X363417D01*
X350692Y223808D02*
X363417D01*
X386120Y237369D02*
X398844D01*
X386120Y223869D02*
X398844D01*
X429783Y160087D02*
Y172811D01*
X416283Y160087D02*
Y172811D01*
X415575Y246430D02*
Y257430D01*
X430489Y246377D02*
Y257377D01*
X415171Y200916D02*
Y217640D01*
X430896Y200916D02*
Y217640D01*
X350517Y194702D02*
X365278D01*
X350517Y179844D02*
X365278D01*
X384746Y194686D02*
X399507D01*
X384746Y179828D02*
X399507D01*
X118359Y279251D02*
X131084D01*
X118359Y265751D02*
X131084D01*
X193352Y246087D02*
Y257087D01*
X208265Y246033D02*
Y257033D01*
X258778Y248064D02*
X273539D01*
X258778Y233206D02*
X273539D01*
X242889Y279378D02*
X255614D01*
X242889Y265878D02*
X255614D01*
D12*
X106929Y253315D02*
X105263Y254981D01*
X101930D01*
X100264Y253315D01*
Y246650D01*
X101930Y244984D01*
X105263D01*
X106929Y246650D01*
X115259Y244984D02*
Y254981D01*
X110261Y249982D01*
X116925D01*
X242032Y178579D02*
Y168582D01*
X248697D01*
X252029Y178579D02*
X258693D01*
Y176913D01*
X252029Y170249D01*
Y168582D01*
X279474Y207754D02*
X277808Y209420D01*
X274475D01*
X272809Y207754D01*
Y201090D01*
X274475Y199424D01*
X277808D01*
X279474Y201090D01*
X282806Y209420D02*
X289471D01*
Y207754D01*
X282806Y201090D01*
Y199424D01*
X216475Y206297D02*
X214809Y207964D01*
X211476D01*
X209810Y206297D01*
Y199633D01*
X211476Y197967D01*
X214809D01*
X216475Y199633D01*
X226471Y207964D02*
X223139Y206297D01*
X219807Y202965D01*
Y199633D01*
X221473Y197967D01*
X224805D01*
X226471Y199633D01*
Y201299D01*
X224805Y202965D01*
X219807D01*
X338113Y207488D02*
Y197491D01*
X344777D01*
X348109Y199157D02*
X349776Y197491D01*
X353108D01*
X354774Y199157D01*
Y205822D01*
X353108Y207488D01*
X349776D01*
X348109Y205822D01*
Y204155D01*
X349776Y202489D01*
X354774D01*
X301710Y159443D02*
X300044Y161109D01*
X296712D01*
X295046Y159443D01*
Y152778D01*
X296712Y151112D01*
X300044D01*
X301710Y152778D01*
X305042Y151112D02*
X308375D01*
X306709D01*
Y161109D01*
X305042Y159443D01*
X313373Y151112D02*
X316705D01*
X315039D01*
Y161109D01*
X313373Y159443D01*
X340169Y257647D02*
Y247650D01*
X346833D01*
X355164D02*
Y257647D01*
X350165Y252649D01*
X356830D01*
X374391Y295479D02*
X372725Y297145D01*
X369392D01*
X367726Y295479D01*
Y288814D01*
X369392Y287148D01*
X372725D01*
X374391Y288814D01*
X377723Y295479D02*
X379389Y297145D01*
X382721D01*
X384388Y295479D01*
Y293813D01*
X382721Y292146D01*
X381055D01*
X382721D01*
X384388Y290480D01*
Y288814D01*
X382721Y287148D01*
X379389D01*
X377723Y288814D01*
X362221Y217649D02*
X360555Y219315D01*
X357223D01*
X355557Y217649D01*
Y210985D01*
X357223Y209319D01*
X360555D01*
X362221Y210985D01*
X365554Y217649D02*
X367220Y219315D01*
X370552D01*
X372218Y217649D01*
Y215983D01*
X370552Y214317D01*
X372218Y212651D01*
Y210985D01*
X370552Y209319D01*
X367220D01*
X365554Y210985D01*
Y212651D01*
X367220Y214317D01*
X365554Y215983D01*
Y217649D01*
X367220Y214317D02*
X370552D01*
X391179Y218182D02*
X389513Y219848D01*
X386181D01*
X384515Y218182D01*
Y211518D01*
X386181Y209852D01*
X389513D01*
X391179Y211518D01*
X394511D02*
X396177Y209852D01*
X399510D01*
X401176Y211518D01*
Y218182D01*
X399510Y219848D01*
X396177D01*
X394511Y218182D01*
Y216516D01*
X396177Y214850D01*
X401176D01*
X446389Y170744D02*
X444723Y172410D01*
X441390D01*
X439724Y170744D01*
Y164079D01*
X441390Y162413D01*
X444723D01*
X446389Y164079D01*
X449721Y162413D02*
X453053D01*
X451387D01*
Y172410D01*
X449721Y170744D01*
X458052D02*
X459718Y172410D01*
X463050D01*
X464716Y170744D01*
Y169078D01*
X463050Y167412D01*
X461384D01*
X463050D01*
X464716Y165746D01*
Y164079D01*
X463050Y162413D01*
X459718D01*
X458052Y164079D01*
X394129Y256412D02*
Y246416D01*
X400794D01*
X410791Y256412D02*
X404126D01*
Y251414D01*
X407458Y253080D01*
X409124D01*
X410791Y251414D01*
Y248082D01*
X409124Y246416D01*
X405792D01*
X404126Y248082D01*
X442006Y213615D02*
Y203618D01*
X448671D01*
X452003D02*
X455335D01*
X453669D01*
Y213615D01*
X452003Y211949D01*
X460334Y203618D02*
X463666D01*
X462000D01*
Y213615D01*
X460334Y211949D01*
X349099Y164410D02*
Y174406D01*
X354097D01*
X355763Y172740D01*
Y169408D01*
X354097Y167742D01*
X349099D01*
X352431D02*
X355763Y164410D01*
X365760Y174406D02*
X359096D01*
Y169408D01*
X362428Y171074D01*
X364094D01*
X365760Y169408D01*
Y166076D01*
X364094Y164410D01*
X360762D01*
X359096Y166076D01*
X385774Y164862D02*
Y174859D01*
X390773D01*
X392439Y173193D01*
Y169860D01*
X390773Y168194D01*
X385774D01*
X389106D02*
X392439Y164862D01*
X402435Y174859D02*
X399103Y173193D01*
X395771Y169860D01*
Y166528D01*
X397437Y164862D01*
X400769D01*
X402435Y166528D01*
Y168194D01*
X400769Y169860D01*
X395771D01*
X43784Y213822D02*
Y203826D01*
X50448D01*
X53781Y212156D02*
X55447Y213822D01*
X58779D01*
X60445Y212156D01*
Y210490D01*
X58779Y208824D01*
X60445Y207158D01*
Y205492D01*
X58779Y203826D01*
X55447D01*
X53781Y205492D01*
Y207158D01*
X55447Y208824D01*
X53781Y210490D01*
Y212156D01*
X55447Y208824D02*
X58779D01*
X134722Y215614D02*
Y205617D01*
X141386D01*
X144719D02*
X148051D01*
X146385D01*
Y215614D01*
X144719Y213948D01*
X153049D02*
X154715Y215614D01*
X158048D01*
X159714Y213948D01*
Y207284D01*
X158048Y205617D01*
X154715D01*
X153049Y207284D01*
Y213948D01*
X124455Y295225D02*
X122789Y296891D01*
X119456D01*
X117790Y295225D01*
Y288560D01*
X119456Y286894D01*
X122789D01*
X124455Y288560D01*
X127787Y286894D02*
X131119D01*
X129453D01*
Y296891D01*
X127787Y295225D01*
X141326Y251169D02*
X139660Y252835D01*
X136328D01*
X134662Y251169D01*
Y244504D01*
X136328Y242838D01*
X139660D01*
X141326Y244504D01*
X151323Y252835D02*
X144658D01*
Y247836D01*
X147991Y249503D01*
X149657D01*
X151323Y247836D01*
Y244504D01*
X149657Y242838D01*
X146325D01*
X144658Y244504D01*
X41595Y169964D02*
X39929Y171630D01*
X36597D01*
X34931Y169964D01*
Y163300D01*
X36597Y161634D01*
X39929D01*
X41595Y163300D01*
X44928Y161634D02*
X48260D01*
X46594D01*
Y171630D01*
X44928Y169964D01*
X53258D02*
X54924Y171630D01*
X58257D01*
X59923Y169964D01*
Y163300D01*
X58257Y161634D01*
X54924D01*
X53258Y163300D01*
Y169964D01*
X190041Y159573D02*
X188375Y161239D01*
X185042D01*
X183376Y159573D01*
Y152908D01*
X185042Y151242D01*
X188375D01*
X190041Y152908D01*
X193373Y151242D02*
X196705D01*
X195039D01*
Y161239D01*
X193373Y159573D01*
X208368Y151242D02*
X201704D01*
X208368Y157907D01*
Y159573D01*
X206702Y161239D01*
X203370D01*
X201704Y159573D01*
X50068Y241191D02*
Y231194D01*
X56732D01*
X60065Y239525D02*
X61731Y241191D01*
X65063D01*
X66729Y239525D01*
Y237859D01*
X65063Y236193D01*
X63397D01*
X65063D01*
X66729Y234527D01*
Y232861D01*
X65063Y231194D01*
X61731D01*
X60065Y232861D01*
X145577Y265458D02*
Y255461D01*
X152242D01*
X162239Y265458D02*
X158907Y263792D01*
X155574Y260460D01*
Y257128D01*
X157240Y255461D01*
X160573D01*
X162239Y257128D01*
Y258794D01*
X160573Y260460D01*
X155574D01*
X97934Y164485D02*
Y174482D01*
X102932D01*
X104598Y172816D01*
Y169484D01*
X102932Y167818D01*
X97934D01*
X101266D02*
X104598Y164485D01*
X107930Y172816D02*
X109596Y174482D01*
X112929D01*
X114595Y172816D01*
Y171150D01*
X112929Y169484D01*
X111263D01*
X112929D01*
X114595Y167818D01*
Y166152D01*
X112929Y164485D01*
X109596D01*
X107930Y166152D01*
X138656Y163799D02*
Y173795D01*
X143655D01*
X145321Y172129D01*
Y168797D01*
X143655Y167131D01*
X138656D01*
X141989D02*
X145321Y163799D01*
X153652D02*
Y173795D01*
X148653Y168797D01*
X155318D01*
X259654Y217992D02*
Y227989D01*
X264653D01*
X266319Y226322D01*
Y222990D01*
X264653Y221324D01*
X259654D01*
X262986D02*
X266319Y217992D01*
X276315D02*
X269651D01*
X276315Y224656D01*
Y226322D01*
X274649Y227989D01*
X271317D01*
X269651Y226322D01*
X226467Y218370D02*
Y228367D01*
X231465D01*
X233132Y226700D01*
Y223368D01*
X231465Y221702D01*
X226467D01*
X229799D02*
X233132Y218370D01*
X236464D02*
X239796D01*
X238130D01*
Y228367D01*
X236464Y226700D01*
X267901Y263272D02*
Y253276D01*
X274566D01*
X284563D02*
X277898D01*
X284563Y259940D01*
Y261606D01*
X282897Y263272D01*
X279564D01*
X277898Y261606D01*
X213940Y263381D02*
Y253384D01*
X220604D01*
X223937D02*
X227269D01*
X225603D01*
Y263381D01*
X223937Y261715D01*
X249169Y295225D02*
X247503Y296891D01*
X244170D01*
X242504Y295225D01*
Y288560D01*
X244170Y286894D01*
X247503D01*
X249169Y288560D01*
X259165Y286894D02*
X252501D01*
X259165Y293559D01*
Y295225D01*
X257499Y296891D01*
X254167D01*
X252501Y295225D01*
D13*
X466673Y335510D02*
X461594D01*
X464134D01*
Y322814D01*
X461594Y320275D01*
X459055D01*
X456516Y322814D01*
X481908Y320275D02*
X471751D01*
X481908Y330432D01*
Y332971D01*
X479369Y335510D01*
X474290D01*
X471751Y332971D01*
X31603Y341405D02*
X26525D01*
X29064D01*
Y328709D01*
X26525Y326170D01*
X23986D01*
X21446Y328709D01*
X36681Y326170D02*
X41760D01*
X39221D01*
Y341405D01*
X36681Y338865D01*
M02*
