G04*
G04 #@! TF.GenerationSoftware,Altium Limited,Altium Designer,24.9.1 (31)*
G04*
G04 Layer_Physical_Order=1*
G04 Layer_Color=255*
%FSLAX44Y44*%
%MOMM*%
G71*
G04*
G04 #@! TF.SameCoordinates,4F6A3D44-4BAA-4EB1-AB99-C70FB7F5AA8B*
G04*
G04*
G04 #@! TF.FilePolarity,Positive*
G04*
G01*
G75*
%ADD14R,0.5153X0.4725*%
%ADD15R,0.4725X0.5153*%
%ADD16R,0.7725X0.6274*%
%ADD17R,0.6631X0.5955*%
%ADD18R,0.6600X0.4100*%
%ADD19R,0.7300X0.5100*%
%ADD20R,4.0600X1.0740*%
%ADD21R,4.0600X1.5200*%
%ADD26C,0.7600*%
%ADD27C,1.0740*%
%ADD28C,0.6000*%
D14*
X110958Y230539D02*
D03*
X103386D02*
D03*
X146393Y230460D02*
D03*
X138822D02*
D03*
X378373Y272780D02*
D03*
X370802D02*
D03*
X360840Y230558D02*
D03*
X353269D02*
D03*
X396268Y230619D02*
D03*
X388697D02*
D03*
X128507Y272500D02*
D03*
X120936D02*
D03*
X253037Y272628D02*
D03*
X245466D02*
D03*
D15*
X173423Y162212D02*
D03*
Y169783D02*
D03*
X76288Y162303D02*
D03*
Y169874D02*
D03*
X297582Y218411D02*
D03*
Y225982D02*
D03*
X200809Y216014D02*
D03*
Y223586D02*
D03*
X326209Y162727D02*
D03*
Y170298D02*
D03*
X423033Y162663D02*
D03*
Y170235D02*
D03*
D16*
X76255Y214014D02*
D03*
Y203563D02*
D03*
X173229D02*
D03*
Y214014D02*
D03*
X326206Y203948D02*
D03*
Y214399D02*
D03*
X423033Y214503D02*
D03*
Y204053D02*
D03*
D17*
X111935Y186974D02*
D03*
X103805D02*
D03*
X146173D02*
D03*
X138042D02*
D03*
X236297Y240635D02*
D03*
X228167D02*
D03*
X361963Y187274D02*
D03*
X353833D02*
D03*
X396192Y187257D02*
D03*
X388062D02*
D03*
X270224Y240635D02*
D03*
X262094D02*
D03*
D18*
X76211Y246483D02*
D03*
Y256583D02*
D03*
X173186Y246521D02*
D03*
Y256621D02*
D03*
X297538Y246483D02*
D03*
Y256583D02*
D03*
X326088Y246836D02*
D03*
Y256936D02*
D03*
X422989Y246827D02*
D03*
Y256927D02*
D03*
X200765Y246483D02*
D03*
Y256583D02*
D03*
D19*
X249175Y222238D02*
D03*
Y213038D02*
D03*
D20*
X478957Y272997D02*
D03*
X20207Y272498D02*
D03*
D21*
X478957Y298397D02*
D03*
Y247597D02*
D03*
X20207Y297898D02*
D03*
Y247098D02*
D03*
D26*
X364417Y230558D02*
X385120D01*
X124890Y230460D02*
X135245D01*
X114534D02*
X124890D01*
X297582Y260650D02*
Y272852D01*
X173262Y186974D02*
Y200740D01*
X173229Y216930D02*
Y230625D01*
X173262Y173050D02*
Y186974D01*
X76288Y173130D02*
Y186974D01*
X76255Y216930D02*
Y230625D01*
Y230545D02*
Y242630D01*
X249220Y187400D02*
Y209650D01*
X399530Y230830D02*
X423056D01*
X326082Y230829D02*
Y242910D01*
Y217210D02*
Y230909D01*
X326583Y187389D02*
X351240D01*
X326082Y272858D02*
X367480D01*
X381660Y272924D02*
X423056D01*
X423033Y135909D02*
Y159390D01*
X423056Y230833D02*
Y242950D01*
Y217210D02*
Y230909D01*
X423033Y173470D02*
Y201160D01*
X398630Y187389D02*
X423140D01*
X423056Y260720D02*
Y272924D01*
X374707Y149506D02*
Y187389D01*
X385530D01*
X326082Y260660D02*
Y272858D01*
X364510Y187389D02*
X374707D01*
X326240Y135986D02*
Y159470D01*
Y187389D02*
Y201230D01*
Y173540D02*
Y187389D01*
X326093Y230829D02*
X350010D01*
X124755Y149091D02*
Y186974D01*
X114560D02*
X124755D01*
X135580D01*
X173262Y135494D02*
Y158970D01*
X76288Y135571D02*
Y159050D01*
X76266Y230545D02*
X100190D01*
X173229Y230549D02*
Y242660D01*
X149710Y230625D02*
X173229D01*
X76288Y186974D02*
Y200820D01*
X148680Y186974D02*
X173188D01*
X76631D02*
X101290D01*
X76255Y272574D02*
X117650D01*
X173229Y260440D02*
Y272640D01*
X76255Y260370D02*
Y272574D01*
X249181Y225520D02*
Y240635D01*
X200913D02*
X225570D01*
X200809Y240595D02*
Y242690D01*
Y260440D02*
Y272640D01*
Y272670D02*
X242110D01*
X173229Y272640D02*
X200829D01*
X297582Y229570D02*
Y240994D01*
Y191166D02*
Y215200D01*
X200809Y227240D02*
Y240635D01*
Y188770D02*
Y212800D01*
X238790Y240635D02*
X259570D01*
X272750D02*
X297575D01*
X297593Y240593D02*
Y242690D01*
X256280Y272852D02*
X297582D01*
X298502Y272858D02*
X326082D01*
X423056Y272924D02*
X459176D01*
X131830Y272640D02*
X173229D01*
X40135Y272574D02*
X76255D01*
D27*
X459176Y272924D02*
X493386D01*
X5403Y272487D02*
X39616D01*
D28*
X374768Y230558D02*
D03*
X124890Y230460D02*
D03*
X76288Y135571D02*
D03*
X249220Y187400D02*
D03*
X124755Y149091D02*
D03*
X173262Y135494D02*
D03*
X297582Y191166D02*
D03*
X200809Y188770D02*
D03*
X326240Y135986D02*
D03*
X374707Y149506D02*
D03*
X423033Y135909D02*
D03*
M02*
