G04*
G04 #@! TF.GenerationSoftware,Altium Limited,Altium Designer,24.9.1 (31)*
G04*
G04 Layer_Color=16711935*
%FSLAX44Y44*%
%MOMM*%
G71*
G04*
G04 #@! TF.SameCoordinates,4F6A3D44-4BAA-4EB1-AB99-C70FB7F5AA8B*
G04*
G04*
G04 #@! TF.FilePolarity,Positive*
G04*
G01*
G75*
%ADD11C,0.2000*%
%ADD13C,0.2540*%
%ADD29C,0.1270*%
D11*
X449957Y272997D02*
G03*
X449957Y272997I-1000J0D01*
G01*
X51207Y272498D02*
G03*
X51207Y272498I-1000J0D01*
G01*
X102172Y228039D02*
Y233039D01*
Y228039D02*
X112172D01*
Y233039D01*
X102172D02*
X112172D01*
X170923Y170998D02*
X175923D01*
X170923Y160998D02*
Y170998D01*
Y160998D02*
X175923D01*
Y170998D01*
X137607Y227960D02*
Y232960D01*
Y227960D02*
X147607D01*
Y232960D01*
X137607D02*
X147607D01*
X79255Y203789D02*
Y213789D01*
X73255Y203789D02*
X79255D01*
X73255D02*
Y213789D01*
X79255D01*
X102536Y184180D02*
Y189768D01*
Y184180D02*
X113204D01*
Y189768D01*
X102536D02*
X113204D01*
X136773Y184180D02*
Y189768D01*
Y184180D02*
X147441D01*
Y189768D01*
X136773D02*
X147441D01*
X72711Y257033D02*
X79711D01*
X72711Y246033D02*
Y257033D01*
Y246033D02*
X79711D01*
Y257033D01*
X169685Y257071D02*
X176686D01*
X169685Y246071D02*
Y257071D01*
Y246071D02*
X176686D01*
Y257071D01*
X73788Y171089D02*
X78788D01*
X73788Y161089D02*
Y171089D01*
Y161089D02*
X78788D01*
Y171089D01*
X170229Y213789D02*
X176229D01*
X170229Y203789D02*
Y213789D01*
Y203789D02*
X176229D01*
Y213789D01*
X295082Y227196D02*
X300082D01*
X295082Y217196D02*
Y227196D01*
Y217196D02*
X300082D01*
Y227196D01*
X198309Y224800D02*
X203309D01*
X198309Y214800D02*
Y224800D01*
Y214800D02*
X203309D01*
Y224800D01*
X294038Y257033D02*
X301038D01*
X294038Y246033D02*
Y257033D01*
Y246033D02*
X301038D01*
Y257033D01*
X226898Y237841D02*
Y243429D01*
Y237841D02*
X237566D01*
Y243429D01*
X226898D02*
X237566D01*
X323206Y214174D02*
X329206D01*
X323206Y204174D02*
Y214174D01*
Y204174D02*
X329206D01*
Y214174D01*
X323709Y171512D02*
X328709D01*
X323709Y161512D02*
Y171512D01*
Y161512D02*
X328709D01*
Y171512D01*
X322588Y257386D02*
X329588D01*
X322588Y246386D02*
Y257386D01*
Y246386D02*
X329588D01*
Y257386D01*
X369588Y270280D02*
Y275280D01*
Y270280D02*
X379588D01*
Y275280D01*
X369588D02*
X379588D01*
X352054Y228058D02*
Y233058D01*
Y228058D02*
X362054D01*
Y233058D01*
X352054D02*
X362054D01*
X387482Y228119D02*
Y233119D01*
Y228119D02*
X397482D01*
Y233119D01*
X387482D02*
X397482D01*
X420533Y171449D02*
X425533D01*
X420533Y161449D02*
Y171449D01*
Y161449D02*
X425533D01*
Y171449D01*
X419488Y257377D02*
X426488D01*
X419488Y246377D02*
Y257377D01*
Y246377D02*
X426488D01*
Y257377D01*
X420033Y204278D02*
X426033D01*
Y214278D01*
X420033D02*
X426033D01*
X420033Y204278D02*
Y214278D01*
X352564Y184480D02*
Y190068D01*
Y184480D02*
X363232D01*
Y190068D01*
X352564D02*
X363232D01*
X386793Y184463D02*
Y190051D01*
Y184463D02*
X397461D01*
Y190051D01*
X386793D02*
X397461D01*
X119721Y270001D02*
Y275000D01*
Y270001D02*
X129721D01*
Y275000D01*
X119721D02*
X129721D01*
X197265Y257033D02*
X204265D01*
X197265Y246033D02*
Y257033D01*
Y246033D02*
X204265D01*
Y257033D01*
X260825Y237841D02*
Y243429D01*
Y237841D02*
X271493D01*
Y243429D01*
X260825D02*
X271493D01*
X244252Y270128D02*
Y275128D01*
Y270128D02*
X254252D01*
Y275128D01*
X244252D02*
X254252D01*
D13*
X497257Y316997D02*
X489132D01*
Y321060D01*
X490486Y322414D01*
X493195D01*
X494549Y321060D01*
Y316997D01*
X490486Y330540D02*
X489132Y329185D01*
Y326477D01*
X490486Y325123D01*
X495903D01*
X497257Y326477D01*
Y329185D01*
X495903Y330540D01*
X489132Y333248D02*
X497257D01*
Y337311D01*
X495903Y338665D01*
X494549D01*
X493195Y337311D01*
Y333248D01*
Y337311D01*
X491840Y338665D01*
X490486D01*
X489132Y337311D01*
Y333248D01*
Y354916D02*
Y349499D01*
X497257D01*
Y354916D01*
X493195Y349499D02*
Y352207D01*
X489132Y357624D02*
X497257D01*
Y361687D01*
X495903Y363041D01*
X490486D01*
X489132Y361687D01*
Y357624D01*
X490486Y371167D02*
X489132Y369812D01*
Y367104D01*
X490486Y365750D01*
X495903D01*
X497257Y367104D01*
Y369812D01*
X495903Y371167D01*
X493195D01*
Y368458D01*
X489132Y379292D02*
Y373875D01*
X497257D01*
Y379292D01*
X493195Y373875D02*
Y376584D01*
X1907Y228498D02*
X10032D01*
Y224436D01*
X8678Y223081D01*
X5969D01*
X4615Y224436D01*
Y228498D01*
X8678Y214956D02*
X10032Y216310D01*
Y219019D01*
X8678Y220373D01*
X3261D01*
X1907Y219019D01*
Y216310D01*
X3261Y214956D01*
X10032Y212248D02*
X1907D01*
Y208185D01*
X3261Y206831D01*
X4615D01*
X5969Y208185D01*
Y212248D01*
Y208185D01*
X7324Y206831D01*
X8678D01*
X10032Y208185D01*
Y212248D01*
Y190580D02*
Y195997D01*
X1907D01*
Y190580D01*
X5969Y195997D02*
Y193288D01*
X10032Y187871D02*
X1907D01*
Y183809D01*
X3261Y182454D01*
X8678D01*
X10032Y183809D01*
Y187871D01*
X8678Y174329D02*
X10032Y175683D01*
Y178392D01*
X8678Y179746D01*
X3261D01*
X1907Y178392D01*
Y175683D01*
X3261Y174329D01*
X5969D01*
Y177038D01*
X10032Y166204D02*
Y171621D01*
X1907D01*
Y166204D01*
X5969Y171621D02*
Y168912D01*
D29*
X245675Y212138D02*
X252675D01*
X245675Y223138D02*
X252675D01*
X245675Y212138D02*
Y223138D01*
X252675Y212138D02*
Y223138D01*
X499257Y312647D02*
X511857D01*
Y304747D02*
Y312647D01*
Y241247D02*
Y304747D01*
Y233347D02*
Y241247D01*
X499257Y233347D02*
X511857D01*
Y304747D02*
X575357D01*
Y241247D02*
Y304747D01*
X511857Y241247D02*
X575357D01*
X460257Y303497D02*
X499257D01*
X460257Y292997D02*
Y303497D01*
Y292997D02*
X499257D01*
X460257Y279497D02*
X499257D01*
X460257Y266497D02*
Y279497D01*
Y266497D02*
X499257D01*
X460257Y252997D02*
X499257D01*
X460257Y242497D02*
Y252997D01*
Y242497D02*
X499257D01*
Y312647D02*
Y333897D01*
Y292997D02*
Y312647D01*
Y279497D02*
Y292997D01*
Y266497D02*
Y279497D01*
Y252997D02*
Y266497D01*
Y233347D02*
Y252997D01*
Y212097D02*
Y233347D01*
X-93Y312148D02*
Y333398D01*
Y292498D02*
Y312148D01*
Y278998D02*
Y292498D01*
Y265998D02*
Y278998D01*
Y252498D02*
Y265998D01*
Y232848D02*
Y252498D01*
Y211598D02*
Y232848D01*
Y302998D02*
X38907D01*
Y292498D02*
Y302998D01*
X-93Y292498D02*
X38907D01*
X-93Y278998D02*
X38907D01*
Y265998D02*
Y278998D01*
X-93Y265998D02*
X38907D01*
X-93Y252498D02*
X38907D01*
Y241998D02*
Y252498D01*
X-93Y241998D02*
X38907D01*
X-76193Y304248D02*
X-12693D01*
X-76193Y240748D02*
Y304248D01*
Y240748D02*
X-12693D01*
Y312148D02*
X-93D01*
X-12693Y304248D02*
Y312148D01*
Y240748D02*
Y304248D01*
Y232848D02*
Y240748D01*
Y232848D02*
X-93D01*
M02*
